<svg xmlns="http://www.w3.org/2000/svg" viewBox="0 0 94.46 70.74"><defs><style>.cls-1{font-size:12px;font-family:Montserrat-Regular, Montserrat;}.cls-1,.cls-3{fill:#e73e51;}.cls-2{letter-spacing:-0.05em;}.cls-4{fill:none;stroke:#e73e51;stroke-miterlimit:10;stroke-width:1.03px;}</style></defs><title>Children</title><g id="Layer_2" data-name="Layer 2"><g id="Layer_1-2" data-name="Layer 1"><text class="cls-1" transform="translate(0 67.73)">Children&amp;<tspan class="cls-2" x="59.22" y="0">Y</tspan><tspan x="66.22" y="0">outh</tspan></text><path class="cls-3" d="M44.9,30.61V28.85a3.65,3.65,0,0,1,3.65-3.65h0A5.83,5.83,0,0,1,44.9,30.61Z"/><path class="cls-3" d="M48.55,17.84a3.81,3.81,0,0,0,.73.07c1.61,0,2.92-1,2.92-2.19s-1.31-2.19-2.92-2.19-2.92,1-2.92,2.19V23a1.46,1.46,0,0,1-1.46,1.46h0A1.46,1.46,0,0,1,43.44,23V18.64a16.44,16.44,0,0,1-11.67-4.83,8.72,8.72,0,0,0,2.7,6.31,7.32,7.32,0,0,0,2,2.8,5.84,5.84,0,0,0,1.9,2.73H36.75a5,5,0,0,0-3.52,1.46,6.68,6.68,0,0,1,4.74,2h0a6.69,6.69,0,0,0,4.74,2h0a5.83,5.83,0,0,0,5.83-5.83h0V17.84Z"/><path class="cls-3" d="M40.52,22.56a8.72,8.72,0,0,1-6.05-2.44A8.71,8.71,0,0,0,40.52,22.56Z"/><path class="cls-3" d="M41.25,24.75a7.24,7.24,0,0,1-4.81-1.82A7.24,7.24,0,0,0,41.25,24.75Z"/><path class="cls-3" d="M43.44,28.39A1.46,1.46,0,0,0,42,26.93h0a5.8,5.8,0,0,1-3.64-1.28A5.8,5.8,0,0,0,42,26.94h0A1.46,1.46,0,0,1,43.44,28.39Z"/><path class="cls-3" d="M48.55,17.84a3.36,3.36,0,0,1-1.13-.43A3.36,3.36,0,0,0,48.55,17.84Z"/><path class="cls-3" d="M50,15.15a1,1,0,0,0-1.46,0A1,1,0,0,1,50,15.15Z"/><path class="cls-3" d="M52.16,15.42a1.63,1.63,0,0,1,0,.3,1.91,1.91,0,0,1-.75,1.46H58Z"/><path class="cls-3" d="M42.71,31h-3a5,5,0,0,0-3.52,1.46h0A5,5,0,0,1,39.67,31Z"/><path class="cls-3" d="M52.41,23.69l2.69-6.51h0l2.7,6.51A2.9,2.9,0,0,1,58,24.8h0a2.92,2.92,0,0,1-2.92,2.92h0a2.92,2.92,0,0,1-2.92-2.92h0a2.89,2.89,0,0,1,.22-1.12Z"/><path class="cls-3" d="M55.54,25.83,52.7,23Z"/><path class="cls-3" d="M57.8,23.69l-2.7-6.51h0V24.8h0a1.46,1.46,0,0,0,1.46,1.46h0A1.46,1.46,0,0,0,58,24.8h0A2.9,2.9,0,0,0,57.8,23.69Z"/><path class="cls-3" d="M55.11,16.31a1.82,1.82,0,0,1,1.82-1.82A1.82,1.82,0,0,1,55.11,16.31Z"/><path class="cls-3" d="M53.68,14.16a1.82,1.82,0,0,1,1.43,2.14A1.82,1.82,0,0,1,53.68,14.16Z"/><circle class="cls-4" cx="44.9" cy="23.02" r="22.5"/></g></g></svg>