<svg xmlns="http://www.w3.org/2000/svg" viewBox="0 0 152.36 31.56"><defs><style>.cls-1{fill:#fff;}</style></defs><title>Asset 3</title><g id="Layer_2" data-name="Layer 2"><g id="Layer_1-2" data-name="Layer 1"><rect class="cls-1" y="18.62" width="152.36" height="0.49"/><path class="cls-1" d="M14.46,2.75l-2.6,3.08a5,5,0,0,0-3.62-2,3.68,3.68,0,0,0-3.62,3.9,3.7,3.7,0,0,0,3.62,3.92,5.5,5.5,0,0,0,3.62-1.76l2.6,2.77A9.18,9.18,0,0,1,8,15.58,7.71,7.71,0,0,1,0,7.76C0,3.34,3.47.06,8.17.06A8.93,8.93,0,0,1,14.46,2.75Z"/><path class="cls-1" d="M23.46,11.29H21.08v4.1H16.57V.2h7.09c4.07,0,6.41,2,6.41,5.4a5.18,5.18,0,0,1-2.56,4.83l3.08,5H25.48Zm.2-3.47a1.91,1.91,0,0,0,2.12-2.1,1.9,1.9,0,0,0-2.12-2.06H21.08V7.82Z"/><path class="cls-1" d="M48.53,7.78c0,4.46-3.51,7.8-8.28,7.8S32,12.27,32,7.78,35.48.06,40.25.06,48.53,3.34,48.53,7.78Zm-11.94,0a3.87,3.87,0,0,0,3.73,4,3.76,3.76,0,0,0,3.6-4,3.72,3.72,0,0,0-3.6-4A3.81,3.81,0,0,0,36.59,7.8Z"/><path class="cls-1" d="M63.38,1.76,61.71,5.22a12.62,12.62,0,0,0-5-1.69c-.76,0-1.26.26-1.26.82,0,2.23,7.93.91,7.93,6.39,0,3.23-2.86,4.77-6.26,4.77a12.39,12.39,0,0,1-7.3-2.41l1.69-3.42A10.38,10.38,0,0,0,57.12,12c1,0,1.56-.33,1.56-1,0-2.3-7.93-.85-7.93-6.2C50.75,1.86,53.24,0,57,0A12.24,12.24,0,0,1,63.38,1.76Z"/><path class="cls-1" d="M78.34,1.76,76.67,5.22a12.62,12.62,0,0,0-5-1.69c-.76,0-1.26.26-1.26.82,0,2.23,7.93.91,7.93,6.39,0,3.23-2.86,4.77-6.26,4.77a12.39,12.39,0,0,1-7.3-2.41l1.69-3.42A10.38,10.38,0,0,0,72.08,12c1,0,1.56-.33,1.56-1,0-2.3-7.93-.85-7.93-6.2C65.71,1.86,68.2,0,72,0A12.24,12.24,0,0,1,78.34,1.76Z"/><path class="cls-1" d="M87.88.2c3.92,0,6.18,2,6.18,5.4,0,3.62-2.25,5.7-6.18,5.7H85.49v4.1H81V.2ZM85.49,7.82h2.17a1.91,1.91,0,0,0,2.12-2.1,1.9,1.9,0,0,0-2.12-2.06H85.49Z"/><path class="cls-1" d="M112.2,7.78c0,4.46-3.51,7.8-8.28,7.8s-8.28-3.32-8.28-7.8S99.15.06,103.92.06,112.2,3.34,112.2,7.78Zm-11.94,0a3.87,3.87,0,0,0,3.73,4,3.76,3.76,0,0,0,3.6-4,3.73,3.73,0,0,0-3.6-4A3.81,3.81,0,0,0,100.26,7.8Z"/><path class="cls-1" d="M114.79,15.39V.2h4.51V15.39Z"/><path class="cls-1" d="M133.29,15.39l-6.44-8.45v8.45h-4.14V.2h3.86L133,8.69V.2h4.12V15.39Z"/><path class="cls-1" d="M147.94,3.79V15.39h-4.53V3.79H139V.2h13.35v3.6Z"/><path class="cls-1" d="M40.78,23.76l-.9,1.12a3.55,3.55,0,0,0-2.54-1.16,3.21,3.21,0,1,0,0,6.41,3.76,3.76,0,0,0,2.54-1.08l.91,1a5.17,5.17,0,0,1-3.52,1.5,4.61,4.61,0,1,1,.05-9.21A5,5,0,0,1,40.78,23.76Z"/><path class="cls-1" d="M54.86,31.49V27.72H50v3.77H48.5v-9.1H50v4h4.82v-4h1.53v9.1Z"/><path class="cls-1" d="M72.75,27.72a3.6,3.6,0,0,1-4,3.84,3.61,3.61,0,0,1-4-3.84V22.39h1.53v5.33a2.27,2.27,0,0,0,2.44,2.46,2.24,2.24,0,0,0,2.41-2.46V22.39h1.53Z"/><path class="cls-1" d="M85.3,28.74H82.72v2.74H81.19v-9.1h3.69c2.33,0,3.67,1.13,3.67,3.11a2.92,2.92,0,0,1-1.89,3l2,3H87Zm-.42-1.37c1.4,0,2.21-.6,2.21-1.83s-.81-1.77-2.21-1.77H82.72v3.6Z"/><path class="cls-1" d="M104.21,23.76l-.9,1.12a3.55,3.55,0,0,0-2.54-1.16,3.21,3.21,0,1,0,0,6.41,3.76,3.76,0,0,0,2.54-1.08l.91,1a5.17,5.17,0,0,1-3.52,1.5,4.61,4.61,0,1,1,.05-9.21A5,5,0,0,1,104.21,23.76Z"/><path class="cls-1" d="M118.28,31.49V27.72h-4.82v3.77h-1.53v-9.1h1.53v4h4.82v-4h1.53v9.1Z"/></g></g></svg>