<svg xmlns="http://www.w3.org/2000/svg" viewBox="0 0 65.83 71.27"><defs><style>.cls-1{font-size:12px;font-family:ProximaNova-Bold, Proxima Nova;font-weight:700;}.cls-1,.cls-2{fill:#e73e51;}.cls-3{fill:#fff;}.cls-4{fill:none;stroke:#e73e51;stroke-miterlimit:10;stroke-width:1.03px;}</style></defs><title>Discipleship</title><g id="Layer_2" data-name="Layer 2"><g id="Layer_1-2" data-name="Layer 1"><text class="cls-1" transform="translate(0 67.23)">Discipleship</text><path class="cls-2" d="M41.18,31.33H30.74V13.71H41.18a2.23,2.23,0,0,1,2.43,2.5v11.7C43.61,29.57,42.76,31.33,41.18,31.33Zm-9.64-.79h9.64c1.13,0,1.64-1.53,1.64-2.62V16.22c0-1.17-.52-1.71-1.64-1.71H31.54Z"/><path class="cls-2" d="M41,13.71H31.34V29.94H41a2.45,2.45,0,0,0,2.43-2.45V16.15A2.43,2.43,0,0,0,41,13.71Z"/><path class="cls-2" d="M34.06,32.32a.19.19,0,0,1-.13-.05l-.44-.43-.44.43a.19.19,0,0,1-.13.05l-.07,0a.19.19,0,0,1-.12-.18v-1.9c0-.11.09-.08.19-.08h1.14c.11,0,.25,0,.25.08v1.9a.22.22,0,0,1-.15.18Z"/><path class="cls-2" d="M36.94,20.44c-.08,0-.25-.2-.25-.31V16.39c0-.11.17-.1.25-.1h.29c.08,0,.05,0,.05.1v3.75c0,.11,0,.31-.05.31Z"/><path class="cls-3" d="M37.22,20.44h-.29a.29.29,0,0,1-.25-.31V16.39a.28.28,0,0,1,.25-.3h.29a.28.28,0,0,1,.25.3v3.75A.29.29,0,0,1,37.22,20.44Zm-.29-4.16s-.06,0-.06.1v3.75a.12.12,0,0,0,.06.11h.29a.12.12,0,0,0,.06-.11V16.39c0-.06,0-.1-.05-.1Z"/><path class="cls-3" d="M38.27,17.62c0,.08,0,.25,0,.25H35.91c-.07,0-.22-.17-.22-.25v-.29c0-.08.15-.06.22-.06h2.33c.07,0,0,0,0,.06Z"/><path class="cls-3" d="M38.24,17.87H35.91a.24.24,0,0,1-.22-.25v-.29a.24.24,0,0,1,.22-.25h2.33a.24.24,0,0,1,.22.25v.29A.24.24,0,0,1,38.24,17.87Zm0-.59H35.91a.07.07,0,0,0,0,.06v.29s0,.06,0,.06h2.33s0,0,0-.06v-.29S38.25,17.28,38.24,17.28Z"/><circle class="cls-4" cx="37.18" cy="23.02" r="22.5"/></g></g></svg>