<svg xmlns="http://www.w3.org/2000/svg" viewBox="0 0 33.38 27.58"><defs><style>.cls-1{fill:#333e48;}</style></defs><title>glasses</title><g id="Layer_2" data-name="Layer 2"><g id="Layer_1-2" data-name="Layer 1"><path class="cls-1" d="M7.07,27.42a7.08,7.08,0,0,0,7.07-7.07,4.06,4.06,0,0,0,0-.62,2.57,2.57,0,0,1,5.14.12.14.14,0,0,0,0,0c0,.16,0,.31,0,.47a7.07,7.07,0,0,0,14.14.31q0-.16,0-.31V6.67A6.68,6.68,0,0,0,26.71,0a.69.69,0,0,0,0,1.39A5.29,5.29,0,0,1,32,6.67v9.49a7.06,7.06,0,0,0-12.15,1.32,3.95,3.95,0,0,0-6.32,0A7.06,7.06,0,0,0,1.39,16.16V6.67A5.29,5.29,0,0,1,6.67,1.39.69.69,0,1,0,6.67,0,6.68,6.68,0,0,0,0,6.67V20.35A7.08,7.08,0,0,0,7.07,27.42ZM26.31,14.66a5.69,5.69,0,1,1-5.69,5.69A5.69,5.69,0,0,1,26.31,14.66Zm-19.23,0a5.69,5.69,0,1,1-5.69,5.69A5.69,5.69,0,0,1,7.07,14.66Z"/></g></g></svg>