<svg xmlns="http://www.w3.org/2000/svg" viewBox="0 0 46.03 46.03"><defs><style>.cls-1{fill:none;stroke:#e73e51;stroke-miterlimit:10;stroke-width:1.03px;}.cls-2{fill:#e73e51;}</style></defs><title>laptop</title><g id="Layer_2" data-name="Layer 2"><g id="Layer_1-2" data-name="Layer 1"><circle class="cls-1" cx="23.02" cy="23.02" r="22.5"/><path class="cls-2" d="M31.82,14.67H14.21a1,1,0,0,0-1,1v10H32.79v-10A1,1,0,0,0,31.82,14.67Zm.09,10.26H14.18v-9.4H31.91Z"/><path class="cls-2" d="M25.83,31.36V31a.92.92,0,0,1-.93-1V28.55H21.17V30a.92.92,0,0,1-.93,1v.4Z"/><path class="cls-2" d="M13.25,25.88v1.84a.89.89,0,0,0,.89.89H31.9a.89.89,0,0,0,.89-.89V25.88ZM23,27.79a.55.55,0,1,1,.55-.55A.55.55,0,0,1,23,27.79Z"/></g></g></svg>