<svg xmlns="http://www.w3.org/2000/svg" viewBox="0 0 15.54 15.54"><defs><style>.cls-1{fill:#fff;}</style></defs><title>Asset 2</title><g id="Layer_2" data-name="Layer 2"><g id="Layer_1-2" data-name="Layer 1"><path class="cls-1" d="M7.77,0a7.77,7.77,0,1,0,7.77,7.77A7.77,7.77,0,0,0,7.77,0Zm.41,14.22H8V9H10.5l-.5-.5H8V6l-.5.5v2H5l.5.5h2v5.21H7.39V9.14h-2l-.79-.8H7.4V6.47l.77-.82V8.34h1.91l.83.82H8.18Zm5-3.21A5.43,5.43,0,0,1,9,14.11a5.09,5.09,0,0,1-.7.1V9.33h3L10.15,8.17H8.34V5.22L7.24,6.4V8.17h-3L5.34,9.3H7.22V14.2A6.64,6.64,0,0,1,4,13.2a6.13,6.13,0,0,1-1.64-2.62v-.07c.25.17.38.45.78.48,0-.51-.22-1-.2-1.54A5.76,5.76,0,0,1,4.2,6.17a1.92,1.92,0,0,1,.43-.46,1.21,1.21,0,0,0,.18.91c.07.11.17.28.27.24A4.61,4.61,0,0,1,6.62,3.16,7.13,7.13,0,0,1,9.94,1.45h.11a3,3,0,0,0-.45,1.86C9.76,5,10.92,6.24,11,8a1.44,1.44,0,0,1,1-1.43c-.21,1.21.9,1.53,1,2.6a2.45,2.45,0,0,1-.43,1.76c-.26.35-.71.58-.92,1a1.76,1.76,0,0,0,.78-.46c.24-.18.47-.38.72-.54Z"/></g></g></svg>