<svg xmlns="http://www.w3.org/2000/svg" viewBox="0 0 71.12 70.42"><defs><style>.cls-1{font-size:12px;font-family:ProximaNova-Bold, Proxima Nova;font-weight:700;}.cls-1,.cls-2{fill:#e73e51;}.cls-3{fill:none;stroke:#e73e51;stroke-miterlimit:10;stroke-width:1.03px;}</style></defs><title>Nuture</title><g id="Layer_2" data-name="Layer 2"><g id="Layer_1-2" data-name="Layer 1"><text class="cls-1" transform="translate(0 66.37)">Nuture&amp;Care</text><path class="cls-2" d="M28.53,23.15A1.69,1.69,0,0,1,28,24.3c.15.07.36.15.58.24l1.12-3a.75.75,0,0,0-.36-.95.57.57,0,0,0-.49,0,.69.69,0,0,0-.36.41L28,22.21a1.35,1.35,0,0,1,.19.15A1.1,1.1,0,0,1,28.53,23.15Z"/><path class="cls-2" d="M32.76,26.87a7.13,7.13,0,0,1-.68-.29h0l-1.7-.7h0l-.68-.29a6,6,0,0,1,.83,1.07l.41.7a1.7,1.7,0,0,0,1.12.95,3.38,3.38,0,0,1,.32.15.28.28,0,0,1,.15.34.27.27,0,0,1-.24.15.15.15,0,0,1-.1,0,2.73,2.73,0,0,0-.32-.12,2.21,2.21,0,0,1-1.36-1.17l-.41-.7a5.41,5.41,0,0,0-4.47-2.7.25.25,0,0,1-.24-.27.24.24,0,0,1,.27-.24,6.08,6.08,0,0,1,1.85.36,1,1,0,0,0,.58-.92.61.61,0,0,0-.15-.41.44.44,0,0,0-.34-.15l-2.7.07a.67.67,0,0,0-.63.49L23.57,25a3,3,0,0,0-.15,1.46A5.33,5.33,0,0,0,25,29.52a1.59,1.59,0,0,1,.46,1,1.07,1.07,0,0,0,.63.9L29.84,33a1.28,1.28,0,0,0,.95,0,1.2,1.2,0,0,0,.66-.68.65.65,0,0,1,.46-.41,2.21,2.21,0,0,0,1.56-1.41l.36-1a2.07,2.07,0,0,0-.15-1.77A1.82,1.82,0,0,0,32.76,26.87Z"/><path class="cls-2" d="M30.3,25.27l1.51-4.11a.75.75,0,0,0-.36-.95.57.57,0,0,0-.49,0,.69.69,0,0,0-.36.41l-1.51,4.11Z"/><path class="cls-2" d="M34.09,23.71a.57.57,0,0,0-.49,0,.69.69,0,0,0-.36.41l-.75,2.07.49.19a2.72,2.72,0,0,1,.7.46l.8-2.19A.77.77,0,0,0,34.09,23.71Z"/><path class="cls-2" d="M32,26l.75-2h0l.53-1.43a.75.75,0,0,0-.36-.95.57.57,0,0,0-.49,0,.69.69,0,0,0-.36.41l-1.29,3.52Z"/><path class="cls-2" d="M47.27,23.15a.69.69,0,0,0-.63-.49l-2.7-.07a.48.48,0,0,0-.34.15.51.51,0,0,0-.15.41,1,1,0,0,0,.58.92,5.94,5.94,0,0,1,1.85-.36.26.26,0,1,1,0,.51,4.89,4.89,0,0,0-1.87.41,5.63,5.63,0,0,0-2.6,2.28l-.41.7a2.21,2.21,0,0,1-1.36,1.17c-.1,0-.19.07-.32.12a.15.15,0,0,1-.1,0,.27.27,0,0,1-.24-.15.26.26,0,0,1,.15-.34l.32-.15a1.7,1.7,0,0,0,1.12-.95l.41-.7a6,6,0,0,1,.83-1.07l-.68.29h0c-.58.24-1.19.51-1.7.7h0c-.27.1-.49.22-.68.29a1.91,1.91,0,0,0-.9.8,2.13,2.13,0,0,0-.17,1.8l.36,1a2.21,2.21,0,0,0,1.56,1.41.66.66,0,0,1,.46.41,1.19,1.19,0,0,0,.8.75,1.29,1.29,0,0,0,.85-.07l3.72-1.58a1,1,0,0,0,.63-.9,1.5,1.5,0,0,1,.44-1,5.39,5.39,0,0,0,1.58-3.13,3,3,0,0,0-.15-1.46Z"/><path class="cls-2" d="M39.9,21.74h0l1.29,3.52c.44-.17.85-.36,1.24-.51l-1.51-4.13a.69.69,0,0,0-.36-.41.57.57,0,0,0-.49,0,.74.74,0,0,0-.36.95Z"/><path class="cls-2" d="M38.54,26.39l.49-.19-.75-2.07a.76.76,0,0,0-.36-.41.57.57,0,0,0-.49,0,.74.74,0,0,0-.36.95l.8,2.19A1.88,1.88,0,0,1,38.54,26.39Z"/><path class="cls-2" d="M38.74,23.93h0l.75,2q.58-.26,1.24-.51l-1.29-3.52a.71.71,0,0,0-.36-.39.57.57,0,0,0-.49,0,.74.74,0,0,0-.36.95Z"/><path class="cls-2" d="M42.89,24.54c.22-.1.44-.17.58-.24a1.59,1.59,0,0,1-.53-1.14,1.21,1.21,0,0,1,.29-.8.51.51,0,0,1,.19-.15L43,21a.69.69,0,0,0-.36-.41.57.57,0,0,0-.49,0,.74.74,0,0,0-.36.95Z"/><path class="cls-2" d="M40.41,15.13a2.3,2.3,0,0,0-1.36-2,2.38,2.38,0,0,0-1.87,0l-1.36.56a.27.27,0,0,1-.19,0l-1.41-.58a2.31,2.31,0,0,0-2,.12,2.33,2.33,0,0,0-1.17,1.9,2.44,2.44,0,0,0,.73,1.77l3.94,3.89,3.94-3.89A2.21,2.21,0,0,0,40.41,15.13Z"/><circle class="cls-3" cx="35.76" cy="23.02" r="22.5"/></g></g></svg>