<svg xmlns="http://www.w3.org/2000/svg" viewBox="0 0 50.6 69.77"><defs><style>.cls-1{font-size:12px;font-family:ProximaNova-Bold, Proxima Nova;font-weight:700;}.cls-1,.cls-3{fill:#e73e51;}.cls-2{fill:none;stroke:#e73e51;stroke-miterlimit:10;stroke-width:1.03px;}</style></defs><title>Outreach</title><g id="Layer_2" data-name="Layer 2"><g id="Layer_1-2" data-name="Layer 1"><text class="cls-1" transform="translate(0 65.73)">Outreach</text><circle class="cls-2" cx="27.06" cy="23.02" r="22.5"/><path class="cls-3" d="M37.06,21.65a8,8,0,0,0-1.44-3.37.43.43,0,0,0-.5-.21,15.39,15.39,0,0,1-1.84.18,2.3,2.3,0,0,1-1-.16c-1.75-.77-3.5-1.52-5.21-2.37a2.49,2.49,0,0,0-2.74.06c-1,.66-2.15,1.19-3.23,1.78A1.49,1.49,0,0,0,20.81,20a1.59,1.59,0,0,0,1.91,0q1.4-.82,2.83-1.61a.54.54,0,0,1,.4-.08c.83.4,1.68.77,2.46,1.25s1.47,1.05,2.21,1.57l3.83,2.76a4.89,4.89,0,0,1,.74.53,1.48,1.48,0,0,0,1.77.34c.3-.11.39-.22.36-.49C37.24,23.43,37.22,22.53,37.06,21.65Z"/><path class="cls-3" d="M25.41,26.75a4,4,0,0,0-.94.27,2.4,2.4,0,0,0,.05-.9,1.46,1.46,0,0,0-.61-.78,1.09,1.09,0,0,0-.84,0c-.25.11-.44.38-.65.58a1.07,1.07,0,0,0-.93-.89,1.08,1.08,0,0,0-1.13.64l-.1-.15A1,1,0,0,0,18.91,25a1,1,0,0,0-.64,1.34c.09.4.18.81.28,1.21a1,1,0,0,0,1.14.79.41.41,0,0,1,.48.23,1,1,0,0,0,1.48.23l.3-.22a1,1,0,0,0,.52,1.22,1.1,1.1,0,0,0,1.37-.28c.06.17.09.33.16.48a1,1,0,0,0,1.95-.09c.17-.65.32-1.3.44-2A1,1,0,0,0,25.41,26.75Z"/><path class="cls-3" d="M17.58,16.06a.66.66,0,0,0-1,.44l-2.32,7.38a.68.68,0,0,0,.52.88l.74.15,1.07.21a19.53,19.53,0,0,1,2.17-8.44C18.39,16.47,18,16.25,17.58,16.06Z"/><path class="cls-3" d="M39.8,23.88c-.12-.86-.2-1.7-.3-2.56-.15-1.32-.29-2.62-.46-3.93a.63.63,0,0,0-.87-.57c-.74.18-1.47.33-2.25.53A11.33,11.33,0,0,1,38.07,25h.72C39.7,25,39.93,24.78,39.8,23.88Z"/><path class="cls-3" d="M35.33,25.54l-5.61-4a13.06,13.06,0,0,0-3.58-2.24.88.88,0,0,0-.63,0c-.89.46-1.77.95-2.65,1.43a2.14,2.14,0,0,1-2.74-3.2l.22-.3a3.09,3.09,0,0,1-.35,0,.72.72,0,0,0-.93.56c-.39,1.18-.83,2.35-1.24,3.52a10.74,10.74,0,0,0-.32,1.4l-.12,1.17c0,.38,0,.69,0,1a.3.3,0,0,0,.15.19s.13,0,.17-.09a5,5,0,0,1,.45-.5,1.67,1.67,0,0,1,1.75-.18c.39.27.36.27.87.1a1.71,1.71,0,0,1,1.5.17.49.49,0,0,0,.54.05,1.8,1.8,0,0,1,2.36,1,.49.49,0,0,0,.32.26,1.86,1.86,0,0,1,1.57,2.29c-.09.32-.16.65-.24,1a.37.37,0,0,0,.18.47c.41.25.79.55,1.17.83A.82.82,0,0,0,29.58,30a.54.54,0,0,0-.26-.68c-.45-.28-.83-.61-1.29-.95-.24-.17-.09-.51.24-.37a1,1,0,0,1,.16.11l2.11,1.52a.75.75,0,0,0,1.11-.23.67.67,0,0,0-.14-1L29.13,26.6c-.17-.12-.44-.24-.26-.48s.38,0,.54.11c1,.71,2,1.42,3,2.15.24.18.45.38.79.22a1,1,0,0,0,.65-.89.63.63,0,0,0-.22-.46C32.76,26.6,31.9,26,31,25.37c-.18-.13-.36-.27-.18-.47s.34,0,.46.09q1.63,1.15,3.24,2.34a.55.55,0,0,0,.62.07A1.05,1.05,0,0,0,35.33,25.54Z"/></g></g></svg>