<svg xmlns="http://www.w3.org/2000/svg" viewBox="0 0 26.83 26.83"><defs><style>.cls-1{fill:#e73e51;}</style></defs><title>Asset 5</title><g id="Layer_2" data-name="Layer 2"><g id="Layer_1-2" data-name="Layer 1"><path class="cls-1" d="M21.64,13h1.73a9.53,9.53,0,0,0-9.52-9.52V5.19A7.8,7.8,0,0,1,21.64,13Z"/><path class="cls-1" d="M26,19,19,16.45,16.45,19a31.21,31.21,0,0,1-8.66-8.66l2.6-2.6L7.79.87H7.31A7.19,7.19,0,0,0,2.22,3h0A7.59,7.59,0,0,0,0,8.34H0a7.59,7.59,0,0,0,1,3.82A37.9,37.9,0,0,0,14.67,25.8a7.59,7.59,0,0,0,9.19-1.19h0A7.19,7.19,0,0,0,26,19.53Z"/><path class="cls-1" d="M13.85,0V1.73A11.27,11.27,0,0,1,25.1,13h1.73A13,13,0,0,0,13.85,0Z"/></g></g></svg>