<svg xmlns="http://www.w3.org/2000/svg" viewBox="0 0 46.03 46.03"><defs><style>.cls-1{fill:none;stroke:#e73e51;stroke-miterlimit:10;stroke-width:1.03px;}.cls-2{fill:#e73e51;}</style></defs><title>sms</title><g id="Layer_2" data-name="Layer 2"><g id="Layer_1-2" data-name="Layer 1"><circle class="cls-1" cx="23.02" cy="23.02" r="22.5"/><path class="cls-2" d="M27.31,12.72H18.73a8.5,8.5,0,0,0-8.49,8.49v.26A8.5,8.5,0,0,0,18.73,30a21.32,21.32,0,0,1-.26,4.32A16.6,16.6,0,0,0,21.29,30h6a8.46,8.46,0,0,0,8.49-8.49v-.26A8.5,8.5,0,0,0,27.31,12.72Zm-10,9.65A1.42,1.42,0,1,1,18.76,21,1.41,1.41,0,0,1,17.34,22.37Zm5.68,0A1.42,1.42,0,1,1,24.44,21,1.41,1.41,0,0,1,23,22.37Zm5.68,0A1.42,1.42,0,1,1,30.12,21,1.41,1.41,0,0,1,28.7,22.37Z"/></g></g></svg>